# xmcd
#
# Track frame offsets: 
#        150
#        49365
#        70100
#        102063
#        135060
#        165988
#        202533
#        222900
#        267363
#
# Disc length: 4090 seconds
#
# Revision: 8
# Processed by: cddbd v1.5.2PL0 Copyright (c) Steve Scherf et al.
# Submitted via: ExactAudioCopyFreeDBPlugin 1.0
#
DISCID=6f0ff809
DTITLE=MIGHTY SAM McCLAIN - Joy And Pain
DYEAR=1998
DGENRE=Blues
TTITLE0=Gone For Good
TTITLE1=Sledgehammer Soul and Down Home Blues
TTITLE2=What You Want Me To Do?
TTITLE3=Where You Been So Long
TTITLE4=I'm So Lonely
TTITLE5=Forgive And Forget
TTITLE6=Lord Will Make A Way
TTITLE7=Long Train Runnin'
TTITLE8=A Soul That's Been Abused
EXTD=YEAR: 1998
EXTT0=
EXTT1=
EXTT2=
EXTT3=
EXTT4=
EXTT5=
EXTT6=
EXTT7=
EXTT8=
PLAYORDER=
